# Exported from Wings 3D 2.1.5
mtllib tank.mtl
o Cube1
#44 vertices, 84 faces
v -0.37956501 -0.25304334 -0.26760977
v -0.88565169 0.25304334 -0.26760977
v 0.88565169 -0.25304334 -0.26760977
v 0.37956501 0.25304334 -0.26760977
v -0.14711757 -9.2107776e-2 -0.26760977
v -0.14711757 9.2107776e-2 -0.26760977
v 0.14711757 9.2107776e-2 -0.26760977
v 0.14711757 -9.2107776e-2 -0.26760977
v -0.14711757 -9.2107776e-2 -0.38934579
v -0.14711757 9.2107776e-2 -0.38934579
v 0.14711757 9.2107776e-2 -0.38934579
v 0.14711757 -9.2107776e-2 -0.38934579
v -0.14711757 -2.3355705e-2 -0.31747329
v -0.14711757 1.3590761e-2 -0.31802341
v -0.14711757 -5.0851067e-3 -0.34993663
v -0.33990712 -2.3355705e-2 -0.35825078
v -0.33979574 1.3590761e-2 -0.35877735
v -0.33333473 -5.0851067e-3 -0.38932398
v 0.37956501 0.25304334 -0.16302153
v 0.88565169 -0.25304334 -0.16302153
v -0.88565169 0.25304334 -0.16302153
v -0.37956501 -0.25304334 -0.16302153
v -0.37956501 -0.25304334 0.26760977
v -0.88565169 0.25304334 0.26760977
v 0.88565169 -0.25304334 0.26760977
v 0.37956501 0.25304334 0.26760977
v -0.14711757 -9.2107776e-2 0.26760977
v -0.14711757 9.2107776e-2 0.26760977
v 0.14711757 9.2107776e-2 0.26760977
v 0.14711757 -9.2107776e-2 0.26760977
v -0.14711757 -9.2107776e-2 0.38934579
v -0.14711757 9.2107776e-2 0.38934579
v 0.14711757 9.2107776e-2 0.38934579
v 0.14711757 -9.2107776e-2 0.38934579
v -0.14711757 -2.3355705e-2 0.31747329
v -0.14711757 1.3590761e-2 0.31802341
v -0.14711757 -5.0851067e-3 0.34993663
v -0.33990712 -2.3355705e-2 0.35825078
v -0.33979574 1.3590761e-2 0.35877735
v -0.33333473 -5.0851067e-3 0.38932398
v 0.37956501 0.25304334 0.16302153
v 0.88565169 -0.25304334 0.16302153
v -0.88565169 0.25304334 0.16302153
v -0.37956501 -0.25304334 0.16302153
vn -0.25968834 -0.62694312 -0.73450956
vn -0.33020078 0.13677364 -0.93394883
vn 0.33020078 -0.13677364 -0.93394883
vn 0.25968834 0.62694312 -0.73450956
vn -0.66666667 -0.33333333 -0.66666667
vn -0.66666667 0.33333333 -0.66666667
vn 0.40824829 0.40824829 -0.81649658
vn 0.40824829 -0.40824829 -0.81649658
vn -0.81649658 -0.40824829 -0.40824829
vn -0.72760688 0.48507125 -0.48507125
vn 0.57735027 0.57735027 -0.57735027
vn 0.57735027 -0.57735027 -0.57735027
vn -0.90593072 -0.36700278 0.21118354
vn -0.90389169 0.37553310 0.20482849
vn -0.90647086 -0.21520574 -0.36331401
vn -0.53513165 -0.76920075 0.34923392
vn -0.76329384 0.61737186 0.19035362
vn -0.32937500 0.42224336 -0.84452510
vn 0.38268343 0.92387953 0.0000000e+0
vn 0.92387953 -0.38268343 0.0000000e+0
vn -0.92387953 0.38268343 0.0000000e+0
vn -0.38268343 -0.92387953 0.0000000e+0
vn -0.25968834 -0.62694312 0.73450956
vn -0.33020078 0.13677364 0.93394883
vn 0.33020078 -0.13677364 0.93394883
vn 0.25968834 0.62694312 0.73450956
vn -0.66666667 -0.33333333 0.66666667
vn -0.55708601 0.37139068 0.74278135
vn 0.40824829 0.40824829 0.81649658
vn 0.40824829 -0.40824829 0.81649658
vn -0.72760688 -0.48507125 0.48507125
vn -0.90453403 0.30151134 0.30151134
vn 0.57735027 0.57735027 0.57735027
vn 0.57735027 -0.57735027 0.57735027
vn -0.91876732 -0.39479902 -5.8749061e-4
vn -0.84949558 0.46317797 -0.25263297
vn -0.94243890 -2.9107237e-3 0.33436575
vn -0.64814117 -0.42120682 -0.63442718
vn -0.76329384 0.61737186 -0.19035362
vn -0.24784620 -7.6353813e-3 0.96876930
vn 0.38268343 0.92387953 0.0000000e+0
vn 0.92387953 -0.38268343 0.0000000e+0
vn -0.92387953 0.38268343 0.0000000e+0
vn -0.38268343 -0.92387953 0.0000000e+0
g Cube1
usemtl #
s 1
f 1//1 22//22 2//2
f 2//2 19//19 4//4
f 2//2 21//21 19//19
f 2//2 22//22 21//21
f 3//3 22//22 1//1
f 4//4 19//19 3//3
f 19//19 20//20 3//3
f 20//20 22//22 3//3
f 23//23 42//42 25//25
f 23//23 44//44 42//42
f 24//24 43//43 23//23
f 25//25 42//42 26//26
f 26//26 42//42 41//41
f 26//26 43//43 24//24
f 41//41 43//43 26//26
f 43//43 44//44 23//23
usemtl %
s 1
f 5//5 12//12 8//8
f 5//5 14//14 13//13
f 5//5 15//15 9//9
f 6//6 14//14 5//5
f 7//7 10//10 6//6
f 7//7 11//11 10//10
f 7//7 12//12 11//11
f 8//8 12//12 7//7
f 9//9 12//12 5//5
f 9//9 15//15 10//10
f 10//10 14//14 6//6
f 10//10 15//15 14//14
f 13//13 15//15 5//5
f 27//27 35//35 28//28
f 28//28 33//33 29//29
f 28//28 36//36 32//32
f 29//29 33//33 30//30
f 30//30 31//31 27//27
f 30//30 34//34 31//31
f 31//31 35//35 27//27
f 31//31 37//37 35//35
f 32//32 33//33 28//28
f 32//32 37//37 31//31
f 33//33 34//34 30//30
f 35//35 36//36 28//28
f 36//36 37//37 32//32
usemtl *
s 1
f 13//13 16//16 15//15
f 14//14 16//16 13//13
f 14//14 17//17 16//16
f 14//14 18//18 17//17
f 15//15 18//18 14//14
f 16//16 18//18 15//15
f 17//17 18//18 16//16
f 35//35 38//38 36//36
f 35//35 40//40 38//38
f 36//36 40//40 37//37
f 37//37 40//40 35//35
f 38//38 39//39 36//36
f 38//38 40//40 39//39
f 39//39 40//40 36//36
usemtl =
s 1
f 10//10 12//12 9//9
f 11//11 12//12 10//10
f 31//31 33//33 32//32
f 31//31 34//34 33//33
usemtl ;
s 1
f 1//1 5//5 3//3
f 2//2 5//5 1//1
f 2//2 6//6 5//5
f 2//2 7//7 6//6
f 3//3 7//7 4//4
f 3//3 8//8 7//7
f 4//4 7//7 2//2
f 5//5 8//8 3//3
f 19//19 42//42 20//20
f 19//19 43//43 41//41
f 20//20 42//42 22//22
f 21//21 43//43 19//19
f 22//22 43//43 21//21
f 22//22 44//44 43//43
f 23//23 28//28 24//24
f 23//23 30//30 27//27
f 24//24 28//28 26//26
f 25//25 30//30 23//23
f 26//26 30//30 25//25
f 27//27 28//28 23//23
f 28//28 29//29 26//26
f 29//29 30//30 26//26
f 41//41 42//42 19//19
f 42//42 44//44 22//22
